<svg xmlns="http://www.w3.org/2000/svg" xmlns:xlink="http://www.w3.org/1999/xlink" version="1.1" id="Layer_1" x="0" y="0" viewBox="0 0 162.5 45.5" xml:space="preserve" class="svg replaced-svg">
    <style type="text/css">.st0{fill:#fff}.st1{fill:#fff}#XMLID_14_{fill:#fff}</style>
    <path class="st0" d="M22 4l3 1c.3.1.6-.1.7-.4.1-.3-.1-.6-.4-.7l-3-1c-.3-.1-.6.1-.7.4-.1.2.1.6.4.7zm-.8 2l3 1c.4.2.7 0 .8-.3.1-.3-.1-.6-.4-.7l-3-1c-.3-.2-.6 0-.7.3-.1.3 0 .6.3.7zm1.5-4l3 1c.3.1.7 0 .8-.3.1-.3-.1-.6-.4-.7l-3-1c-.3-.1-.6.1-.7.4-.2.2 0 .5.3.6zM10.6 43.5h-.1c-1.3-.4-6.6-2.4-8.8-9.1-2.3-7.1 3.2-11.5 7.6-15.1.3-.3.6-.5 1-.8 6.5-5.3 8.6-11.6 8.7-11.9l2-5.8c.1-.3-.1-.6-.4-.7-.3-.1-.6.1-.7.4L18 6.4c0 .1-2.1 6.2-8.3 11.3-.3.3-.6.5-1 .8-4.4 3.6-10.6 8.5-8 16.3 2.2 6.9 7.5 9.2 9.3 9.8.1 0 .2.1.3.1.1 0 .3.1.5.2 1.8.6 7.4 1.9 13.3-2.3 6.7-4.8 4.7-12.4 3.3-17.9l-.3-1.2c-2-7.8 0-14 .1-14.1l1.8-6c.1-.3-.1-.6-.4-.7-.3-.1-.6.1-.7.4l-2 5.9c-.1.3-2.2 6.6-.1 14.7l.3 1.2c1.4 5.5 3.2 12.3-2.8 16.7-5.7 4.1-11 2.6-12.4 2.1"></path>
    <path class="st1" d="M14.5 33.8c8.4 2.9 11.8.4 11.8.4-.5 5.3-5.6 8.7-11.6 8.7-2.5 0-4.9-.7-7.9-3.1-3-2.4-3.8-6-3.8-6s-.3-1-.4-1.7c-.1-.1 2.8-1.5 11.9 1.7z"></path>
    <g>
        <defs>
            <path id="XMLID_14_" d="M67.9 29.7c.7.4 1.9.8 3.1.8 1.9.1 3.2-1.1 3.2-2.8 0-1.5-.8-2.4-2.3-3.7-1.7-1.7-2.6-3.4-2.6-5.4 0-4.1 2.9-7 7.3-7 1.7 0 2.8.4 3.3.7l-1.1 3.6c-.7-.4-1.4-.6-2.4-.6-1.8 0-3 1.1-3 2.8 0 1.1.4 1.9 2.3 3.5 1.8 1.6 2.7 3.6 2.7 5.4 0 4.6-3.1 7.3-7.3 7.3-2.3 0-3.7-.5-4.2-.8l1-3.8z"></path>
        </defs>
        <use xlink:href="#XMLID_14_" overflow="visible" fill="#242833"></use>
        <clipPath id="XMLID_2_">
            <use xlink:href="#XMLID_14_" overflow="visible"></use>
        </clipPath>
        <path class="st0" d="M84.2 28.7l-2 5.2h-4l9-22.3H92l.2 22.3h-4l.1-5.2h-4.1zm4.3-3l.1-4.9c0-1.4.2-3.7.2-5.4h-.1c-.5 1.7-1.3 4.1-1.7 5.4l-1.8 5h3.3z"></path>
        <path class="st1" d="M124.5 11.6h4.2l-3.6 18.7h6.1l-1.4 3.6h-9.6l4.3-22.3zM137.9 28.7l-2 5.2h-4l9-22.3h4.8l.2 22.3h-4l.1-5.2h-4.1zm4.2-3l.1-4.9c0-1.4.2-3.7.2-5.4h-.1c-.5 1.7-1.3 4.1-1.7 5.4l-1.8 5h3.3z"></path>
        <path class="st0" d="M49 11.6l-4.3 22.3h-4.1l4.3-22.3H49zM46.9 33.9l4.3-22.3H55l1.7 8.9c.6 2.9 1 5.1 1.1 6.9h.1c.3-2.4.7-6.3 1.4-10l1.1-5.8h3.5l-4.3 22.3h-3.5l-1.8-8.3c-.7-3.1-.9-4.6-1.2-7.4H53c-.3 2.3-.8 6-1.5 9.8l-1.1 5.9h-3.5zM68.1 15.2h-2.9l.7-3.6h4.8s-1.1 1.1-1.7 1.8c-.6.8-.9 1.8-.9 1.8zM93.6 33.9l4.3-22.3h3.8l1.7 8.9c.6 2.9 1 5.1 1.1 6.9h.1c.3-2.4.7-6.3 1.4-10l1.1-5.8h3.5l-4.3 22.3h-3.5l-1.8-8.3c-.7-3.1-.9-4.6-1.2-7.4h-.1c-.3 2.3-.8 6-1.5 9.8l-1.1 5.9h-3.5z"></path>
        <g>
            <path class="st0" d="M119.5 24h-4.9l-1.2 6.2h5.7l-.7 3.7h-9.7l4.3-22.3h9.3l-.7 3.6h-5.1l-1.1 5.3h5l-.9 3.5z"></path>
        </g>
        <path class="st1" d="M151.8 11.9c1.2-.2 2.7-.4 4.3-.4 1.8 0 3.7.3 5 1.6 1 .9 1.4 2.1 1.4 3.5 0 2.7-1.9 4.9-4.3 5.6v.1c2.2.7 3 2.8 3 4.8s-1 3.8-2.4 4.9c-1.6 1.3-3.8 1.9-7 1.9-2.1 0-3.1-.1-4.1-.3l4.1-21.7zm.4 18.8c.3.1.6.1 1 .1 2.3 0 3.9-1.7 3.9-4 0-1.9-.9-3.1-2.8-3.1h-.7l-1.4 7zm1.9-10.1h.6c2.4 0 3.8-1.5 3.8-3.6 0-1.2-.5-2.4-2.1-2.4-.4 0-.8 0-1.1.1l-1.2 5.9z"></path>
    </g>
</svg>